<svg width="345" height="100" viewBox="0 0 345 100" fill="none" xmlns="http://www.w3.org/2000/svg">
<path d="M50.3365 1.65835e-05C44.3912 0.0104725 39.5676 4.9561 39.5778 11.0623C39.588 17.1581 44.4116 22.1037 50.3569 22.1037C56.3023 22.1037 61.1258 17.1581 61.1258 11.0519V11.031C61.1156 4.92473 56.2921 -0.0104393 50.3365 1.65835e-05ZM14.7869 25.5228C12.8901 25.5333 10.9627 25.6378 9.15766 26.1083C7.96451 26.422 6.81216 26.9239 6.06771 27.7185C5.12951 28.7118 5.00714 30.0502 5.46604 31.2003C5.87395 32.2146 6.97532 32.9674 8.19906 33.4065C10.8403 34.3371 13.7671 34.5253 16.5409 35.1108C17.0508 35.2363 17.6219 35.3827 17.938 35.7382C18.2643 36.1669 18.0706 36.7524 17.5301 37.0138C16.6327 37.4843 15.4803 37.4843 14.4299 37.4739C13.4713 37.432 12.421 37.3484 11.6561 36.857C11.0952 36.5015 10.9933 35.9055 11.1258 35.3827H4.94595C4.92556 36.3446 5.10912 37.3589 5.80257 38.1849C6.37365 38.8959 7.31185 39.3873 8.31124 39.6905C9.9123 40.1715 11.6459 40.3179 13.349 40.3597C15.6639 40.4015 18.0196 40.3283 20.2427 39.7951C21.5684 39.4605 22.8737 38.9272 23.7202 38.0594C25.2294 36.5119 24.8725 34.0548 22.8737 32.8524C21.8744 32.2564 20.6812 31.8904 19.4677 31.6499C17.683 31.2735 15.8678 30.9912 14.073 30.688C13.4408 30.5625 12.7677 30.4475 12.2374 30.1443C11.6765 29.8411 11.6357 29.1196 12.2068 28.7955C12.9411 28.3668 13.92 28.3773 14.7971 28.3773C15.7251 28.3982 16.7347 28.4504 17.4995 28.9C17.9278 29.1405 18.1012 29.5588 18.1012 29.9561L23.9751 29.9456C23.9547 29.1824 23.812 28.3877 23.2715 27.729C22.6392 26.9134 21.5276 26.4011 20.3855 26.1083C18.5805 25.6274 16.6735 25.5333 14.7869 25.5228ZM27.5342 25.9724V40.3701H44.6767V37.2334H33.8262V34.4417H43.504V31.3781H33.8262V29.0883H44.2892L44.279 25.9829L27.5342 25.9724ZM55.772 25.9829C55.772 25.9829 50.4793 25.9829 47.8279 25.9829V40.3806H53.8446V30.688L62.0844 40.3701L70.3447 40.3806V25.9829H64.3178L64.328 35.6023L55.772 25.9829ZM81.0728 26.0038C81.0728 26.0038 74.587 35.6127 71.3237 40.4015H77.6361L79.1556 37.8085H88.9149L90.3325 40.412H97.3486L88.0481 26.0038H81.0728ZM84.2341 29.4438L87.2323 34.6612L81.0422 34.6717L84.2341 29.4438ZM0 44.4479L0.0509892 52.2898L28.6151 52.1853C30.0734 52.5094 30.9198 53.4818 30.6241 55.688L13.0532 87.2229L18.7742 92.7123L45.9922 44.4479H0ZM54.5176 44.5107L81.2768 92.5659L87.1915 87.1184L69.4167 55.6671C69.1209 53.4504 69.9674 52.4676 71.4257 52.1435L100 52.248L99.9898 44.542L54.5176 44.5107ZM50 52.4676L24.9031 96.6332L31.5725 99.9686L48.3174 70.9431C48.8986 70.4622 49.4799 70.2008 50.0612 70.1798C50.6731 70.1589 51.3053 70.389 51.9274 70.8908L68.6314 100L75.5048 96.3195L50 52.4676Z" fill="#70B22D"/>
<path d="M176.17 27.1C180.463 27.1 184.243 27.7767 187.51 29.13C190.823 30.4367 193.693 32.3733 196.12 34.94L190.31 42.71C188.303 40.61 186.133 39.0467 183.8 38.02C181.513 36.9467 178.9 36.41 175.96 36.41C174.233 36.41 172.833 36.5967 171.76 36.97C170.687 37.3433 169.917 37.8567 169.45 38.51C168.983 39.1633 168.75 39.91 168.75 40.75C168.75 41.73 169.193 42.57 170.08 43.27C171.013 43.9233 172.507 44.4833 174.56 44.95L182.33 46.7C186.95 47.7733 190.333 49.3367 192.48 51.39C194.627 53.4433 195.7 56.1733 195.7 59.58C195.7 62.8467 194.86 65.6233 193.18 67.91C191.5 70.15 189.19 71.8533 186.25 73.02C183.31 74.14 179.95 74.7 176.17 74.7C173.09 74.7 170.15 74.3733 167.35 73.72C164.55 73.02 162.03 72.04 159.79 70.78C157.55 69.52 155.66 68.0733 154.12 66.44L159.93 58.39C161.097 59.7433 162.52 60.9567 164.2 62.03C165.927 63.0567 167.793 63.8733 169.8 64.48C171.853 65.0867 173.93 65.39 176.03 65.39C177.663 65.39 179.017 65.2267 180.09 64.9C181.21 64.5733 182.027 64.0833 182.54 63.43C183.053 62.7767 183.31 62.0067 183.31 61.12C183.31 60.14 182.96 59.3233 182.26 58.67C181.56 57.97 180.23 57.3867 178.27 56.92L169.73 55.03C167.117 54.4233 164.783 53.63 162.73 52.65C160.723 51.6233 159.137 50.27 157.97 48.59C156.803 46.8633 156.22 44.7167 156.22 42.15C156.22 39.2567 157.013 36.69 158.6 34.45C160.187 32.1633 162.473 30.3667 165.46 29.06C168.447 27.7533 172.017 27.1 176.17 27.1ZM203.227 74V27.8H239.207V37.11H215.267V46.49H234.307V55.24H215.267V64.69H240.117V74H203.227ZM289.037 27.8V74H275.667L261.317 49.01L257.817 42.15H257.747L258.027 50.69V74H247.387V27.8H260.757L275.107 52.79L278.607 59.65H278.677L278.397 51.11V27.8H289.037ZM341.272 74H328.882L325.662 63.57H309.842L306.552 74H294.442L310.682 27.8H325.102L341.272 74ZM312.082 55.38H323.422L317.752 36.69L312.082 55.38Z" fill="#77B21D"/>
</svg>
