<svg width="758" height="187" viewBox="0 0 758 187" fill="none" xmlns="http://www.w3.org/2000/svg">
<path d="M249.337 1.65835e-05C243.391 0.0104725 238.568 4.9561 238.578 11.0623C238.588 17.1581 243.412 22.1037 249.357 22.1037C255.302 22.1037 260.126 17.1581 260.126 11.0519V11.031C260.116 4.92473 255.292 -0.0104393 249.337 1.65835e-05ZM213.787 25.5228C211.89 25.5333 209.963 25.6378 208.158 26.1083C206.965 26.422 205.812 26.9239 205.068 27.7185C204.13 28.7118 204.007 30.0502 204.466 31.2003C204.874 32.2146 205.975 32.9674 207.199 33.4065C209.84 34.3371 212.767 34.5253 215.541 35.1108C216.051 35.2363 216.622 35.3827 216.938 35.7382C217.264 36.1669 217.071 36.7524 216.53 37.0138C215.633 37.4843 214.48 37.4843 213.43 37.4739C212.471 37.432 211.421 37.3484 210.656 36.857C210.095 36.5015 209.993 35.9055 210.126 35.3827H203.946C203.926 36.3446 204.109 37.3589 204.803 38.1849C205.374 38.8959 206.312 39.3873 207.311 39.6905C208.912 40.1715 210.646 40.3179 212.349 40.3597C214.664 40.4015 217.02 40.3283 219.243 39.7951C220.568 39.4605 221.874 38.9272 222.72 38.0594C224.229 36.5119 223.873 34.0548 221.874 32.8524C220.874 32.2564 219.681 31.8904 218.468 31.6499C216.683 31.2735 214.868 30.9912 213.073 30.688C212.441 30.5625 211.768 30.4475 211.237 30.1443C210.677 29.8411 210.636 29.1196 211.207 28.7955C211.941 28.3668 212.92 28.3773 213.797 28.3773C214.725 28.3982 215.735 28.4504 216.499 28.9C216.928 29.1405 217.101 29.5588 217.101 29.9561L222.975 29.9456C222.955 29.1824 222.812 28.3877 222.271 27.729C221.639 26.9134 220.528 26.4011 219.385 26.1083C217.58 25.6274 215.673 25.5333 213.787 25.5228ZM226.534 25.9724V40.3701H243.677V37.2334H232.826V34.4417H242.504V31.3781H232.826V29.0883H243.289L243.279 25.9829L226.534 25.9724ZM254.772 25.9829C254.772 25.9829 249.479 25.9829 246.828 25.9829V40.3806H252.845V30.688L261.084 40.3701L269.345 40.3806V25.9829H263.318L263.328 35.6023L254.772 25.9829ZM280.073 26.0038C280.073 26.0038 273.587 35.6127 270.324 40.4015H276.636L278.156 37.8085H287.915L289.332 40.412H296.349L287.048 26.0038H280.073ZM283.234 29.4438L286.232 34.6612L280.042 34.6717L283.234 29.4438ZM199 44.4479L199.051 52.2898L227.615 52.1853C229.073 52.5094 229.92 53.4818 229.624 55.688L212.053 87.2229L217.774 92.7122L244.992 44.4479H199ZM253.518 44.5107L280.277 92.5659L286.192 87.1184L268.417 55.6671C268.121 53.4504 268.967 52.4676 270.426 52.1435L299 52.248L298.99 44.542L253.518 44.5107ZM249 52.4676L223.903 96.6332L230.573 99.9686L247.317 70.9431C247.899 70.4622 248.48 70.2008 249.061 70.1798C249.673 70.1589 250.305 70.389 250.927 70.8908L267.631 100L274.505 96.3195L249 52.4676Z" fill="#70B22D"/>
<path d="M378.48 23.4C383.387 23.4 387.707 24.1733 391.44 25.72C395.227 27.2133 398.507 29.4267 401.28 32.36L394.64 41.24C392.347 38.84 389.867 37.0533 387.2 35.88C384.587 34.6533 381.6 34.04 378.24 34.04C376.267 34.04 374.667 34.2533 373.44 34.68C372.213 35.1067 371.333 35.6933 370.8 36.44C370.267 37.1867 370 38.04 370 39C370 40.12 370.507 41.08 371.52 41.88C372.587 42.6267 374.293 43.2667 376.64 43.8L385.52 45.8C390.8 47.0267 394.667 48.8133 397.12 51.16C399.573 53.5067 400.8 56.6267 400.8 60.52C400.8 64.2533 399.84 67.4267 397.92 70.04C396 72.6 393.36 74.5467 390 75.88C386.64 77.16 382.8 77.8 378.48 77.8C374.96 77.8 371.6 77.4267 368.4 76.68C365.2 75.88 362.32 74.76 359.76 73.32C357.2 71.88 355.04 70.2267 353.28 68.36L359.92 59.16C361.253 60.7067 362.88 62.0933 364.8 63.32C366.773 64.4933 368.907 65.4267 371.2 66.12C373.547 66.8133 375.92 67.16 378.32 67.16C380.187 67.16 381.733 66.9733 382.96 66.6C384.24 66.2267 385.173 65.6667 385.76 64.92C386.347 64.1733 386.64 63.2933 386.64 62.28C386.64 61.16 386.24 60.2267 385.44 59.48C384.64 58.68 383.12 58.0133 380.88 57.48L371.12 55.32C368.133 54.6267 365.467 53.72 363.12 52.6C360.827 51.4267 359.013 49.88 357.68 47.96C356.347 45.9867 355.68 43.5333 355.68 40.6C355.68 37.2933 356.587 34.36 358.4 31.8C360.213 29.1867 362.827 27.1333 366.24 25.64C369.653 24.1467 373.733 23.4 378.48 23.4ZM409.403 77V24.2H450.523V34.84H423.163V45.56H444.923V55.56H423.163V66.36H451.563V77H409.403ZM507.471 24.2V77H492.191L475.791 48.44L471.791 40.6H471.711L472.031 50.36V77H459.871V24.2H475.151L491.551 52.76L495.551 60.6H495.631L495.311 50.84V24.2H507.471ZM567.168 77H553.008L549.328 65.08H531.248L527.488 77H513.648L532.208 24.2H548.688L567.168 77ZM533.808 55.72H546.768L540.288 34.36L533.808 55.72Z" fill="#77B21D"/>
<path d="M24.22 170.7C20.1133 170.7 16.45 169.79 13.23 167.97C10.0567 166.15 7.58333 163.467 5.81 159.92C4.03667 156.373 3.15 152.057 3.15 146.97C3.15 141.977 4.08333 137.707 5.95 134.16C7.81667 130.613 10.4767 127.883 13.93 125.97C17.43 124.057 21.5367 123.1 26.25 123.1C31.4767 123.1 35.7 124.057 38.92 125.97C42.14 127.837 44.6367 130.823 46.41 134.93L35.28 139.34C34.6733 136.96 33.6 135.233 32.06 134.16C30.52 133.087 28.6067 132.55 26.32 132.55C24.0333 132.55 22.0733 133.11 20.44 134.23C18.8067 135.303 17.57 136.913 16.73 139.06C15.89 141.16 15.47 143.773 15.47 146.9C15.47 150.167 15.89 152.897 16.73 155.09C17.6167 157.283 18.9 158.917 20.58 159.99C22.3067 161.017 24.43 161.53 26.95 161.53C28.3033 161.53 29.54 161.367 30.66 161.04C31.78 160.713 32.76 160.247 33.6 159.64C34.44 158.987 35.0933 158.193 35.56 157.26C36.0267 156.28 36.26 155.137 36.26 153.83V153.13H25.69V145.08H46.48V170H38.29L37.38 159.15L39.34 160.83C38.36 164.003 36.5867 166.453 34.02 168.18C31.5 169.86 28.2333 170.7 24.22 170.7ZM55.6959 170V123.8H91.6759V133.11H67.7359V142.49H86.7759V151.24H67.7359V160.69H92.5859V170H55.6959ZM117.916 123.1C122.209 123.1 125.989 123.777 129.256 125.13C132.569 126.437 135.439 128.373 137.866 130.94L132.056 138.71C130.049 136.61 127.879 135.047 125.546 134.02C123.259 132.947 120.646 132.41 117.706 132.41C115.979 132.41 114.579 132.597 113.506 132.97C112.433 133.343 111.663 133.857 111.196 134.51C110.729 135.163 110.496 135.91 110.496 136.75C110.496 137.73 110.939 138.57 111.826 139.27C112.759 139.923 114.253 140.483 116.306 140.95L124.076 142.7C128.696 143.773 132.079 145.337 134.226 147.39C136.373 149.443 137.446 152.173 137.446 155.58C137.446 158.847 136.606 161.623 134.926 163.91C133.246 166.15 130.936 167.853 127.996 169.02C125.056 170.14 121.696 170.7 117.916 170.7C114.836 170.7 111.896 170.373 109.096 169.72C106.296 169.02 103.776 168.04 101.536 166.78C99.2961 165.52 97.4061 164.073 95.8661 162.44L101.676 154.39C102.843 155.743 104.266 156.957 105.946 158.03C107.673 159.057 109.539 159.873 111.546 160.48C113.599 161.087 115.676 161.39 117.776 161.39C119.409 161.39 120.763 161.227 121.836 160.9C122.956 160.573 123.773 160.083 124.286 159.43C124.799 158.777 125.056 158.007 125.056 157.12C125.056 156.14 124.706 155.323 124.006 154.67C123.306 153.97 121.976 153.387 120.016 152.92L111.476 151.03C108.863 150.423 106.529 149.63 104.476 148.65C102.469 147.623 100.883 146.27 99.7161 144.59C98.5494 142.863 97.9661 140.717 97.9661 138.15C97.9661 135.257 98.7594 132.69 100.346 130.45C101.933 128.163 104.219 126.367 107.206 125.06C110.193 123.753 113.763 123.1 117.916 123.1ZM182.935 123.8V133.11H167.885V170H155.845V133.11H140.725V123.8H182.935ZM201.857 123.8V170H189.817V123.8H201.857ZM232.822 123.1C237.489 123.1 241.502 124.057 244.862 125.97C248.269 127.837 250.882 130.543 252.702 134.09C254.522 137.637 255.432 141.907 255.432 146.9C255.432 151.893 254.522 156.163 252.702 159.71C250.882 163.257 248.269 165.987 244.862 167.9C241.502 169.767 237.489 170.7 232.822 170.7C228.156 170.7 224.119 169.767 220.712 167.9C217.306 165.987 214.692 163.257 212.872 159.71C211.052 156.163 210.142 151.893 210.142 146.9C210.142 141.907 211.052 137.637 212.872 134.09C214.692 130.543 217.306 127.837 220.712 125.97C224.119 124.057 228.156 123.1 232.822 123.1ZM232.822 132.55C230.582 132.55 228.692 133.087 227.152 134.16C225.612 135.233 224.446 136.843 223.652 138.99C222.859 141.09 222.462 143.727 222.462 146.9C222.462 150.027 222.859 152.663 223.652 154.81C224.446 156.957 225.612 158.567 227.152 159.64C228.692 160.713 230.582 161.25 232.822 161.25C235.062 161.25 236.929 160.713 238.422 159.64C239.962 158.567 241.129 156.957 241.922 154.81C242.716 152.663 243.112 150.027 243.112 146.9C243.112 143.727 242.716 141.09 241.922 138.99C241.129 136.843 239.962 135.233 238.422 134.16C236.929 133.087 235.062 132.55 232.822 132.55ZM232.052 107.98H242.692L236.462 119.39H227.782L232.052 107.98ZM305.364 123.8V170H291.994L277.644 145.01L274.144 138.15H274.074L274.354 146.69V170H263.714V123.8H277.084L291.434 148.79L294.934 155.65H295.004L294.724 147.11V123.8H305.364ZM371.538 133.11H347.668V142.91H366.708V152.22H347.668V170H335.628V123.8H371.538V133.11ZM398.867 123.1C403.534 123.1 407.547 124.057 410.907 125.97C414.314 127.837 416.927 130.543 418.747 134.09C420.567 137.637 421.477 141.907 421.477 146.9C421.477 151.893 420.567 156.163 418.747 159.71C416.927 163.257 414.314 165.987 410.907 167.9C407.547 169.767 403.534 170.7 398.867 170.7C394.2 170.7 390.164 169.767 386.757 167.9C383.35 165.987 380.737 163.257 378.917 159.71C377.097 156.163 376.187 151.893 376.187 146.9C376.187 141.907 377.097 137.637 378.917 134.09C380.737 130.543 383.35 127.837 386.757 125.97C390.164 124.057 394.2 123.1 398.867 123.1ZM398.867 132.55C396.627 132.55 394.737 133.087 393.197 134.16C391.657 135.233 390.49 136.843 389.697 138.99C388.904 141.09 388.507 143.727 388.507 146.9C388.507 150.027 388.904 152.663 389.697 154.81C390.49 156.957 391.657 158.567 393.197 159.64C394.737 160.713 396.627 161.25 398.867 161.25C401.107 161.25 402.974 160.713 404.467 159.64C406.007 158.567 407.174 156.957 407.967 154.81C408.76 152.663 409.157 150.027 409.157 146.9C409.157 143.727 408.76 141.09 407.967 138.99C407.174 136.843 406.007 135.233 404.467 134.16C402.974 133.087 401.107 132.55 398.867 132.55ZM451.808 123.8C457.315 123.8 461.585 125.107 464.618 127.72C467.698 130.287 469.238 133.717 469.238 138.01C469.238 142.723 467.722 146.317 464.688 148.79C461.655 151.263 457.385 152.5 451.878 152.5L450.758 153.13H441.588V170H429.758V123.8H451.808ZM450.128 144.59C452.462 144.59 454.212 144.123 455.378 143.19C456.545 142.257 457.128 140.763 457.128 138.71C457.128 136.703 456.545 135.233 455.378 134.3C454.212 133.367 452.462 132.9 450.128 132.9H441.588V144.59H450.128ZM457.198 147.11L471.968 170H458.668L446.838 149.77L457.198 147.11ZM531.5 123.8V170H520.86V148.79L521.21 134.58H521.07L509.66 170H499.93L488.52 134.58H488.38L488.73 148.79V170H478.02V123.8H495.17L502.45 147.32L505.04 157.12H505.18L507.84 147.39L515.05 123.8H531.5ZM583.731 170H571.341L568.121 159.57H552.301L549.011 170H536.901L553.141 123.8H567.561L583.731 170ZM554.541 151.38H565.881L560.211 132.69L554.541 151.38ZM628.345 156.77C627.458 159.99 626.035 162.65 624.075 164.75C622.115 166.803 619.782 168.32 617.075 169.3C614.368 170.233 611.382 170.7 608.115 170.7C603.448 170.7 599.412 169.767 596.005 167.9C592.598 165.987 589.985 163.257 588.165 159.71C586.345 156.163 585.435 151.893 585.435 146.9C585.435 141.907 586.345 137.637 588.165 134.09C589.985 130.543 592.598 127.837 596.005 125.97C599.412 124.057 603.425 123.1 608.045 123.1C611.265 123.1 614.228 123.567 616.935 124.5C619.642 125.387 621.928 126.763 623.795 128.63C625.662 130.497 626.992 132.9 627.785 135.84L617.215 140.11C616.562 137.217 615.488 135.233 613.995 134.16C612.548 133.087 610.705 132.55 608.465 132.55C606.272 132.55 604.358 133.087 602.725 134.16C601.138 135.233 599.902 136.843 599.015 138.99C598.175 141.09 597.755 143.727 597.755 146.9C597.755 150.027 598.152 152.663 598.945 154.81C599.738 156.957 600.928 158.567 602.515 159.64C604.148 160.713 606.155 161.25 608.535 161.25C610.775 161.25 612.665 160.643 614.205 159.43C615.792 158.17 616.865 156.257 617.425 153.69L628.345 156.77ZM647.082 123.8V170H635.042V123.8H647.082ZM678.047 123.1C682.713 123.1 686.727 124.057 690.087 125.97C693.493 127.837 696.107 130.543 697.927 134.09C699.747 137.637 700.657 141.907 700.657 146.9C700.657 151.893 699.747 156.163 697.927 159.71C696.107 163.257 693.493 165.987 690.087 167.9C686.727 169.767 682.713 170.7 678.047 170.7C673.38 170.7 669.343 169.767 665.937 167.9C662.53 165.987 659.917 163.257 658.097 159.71C656.277 156.163 655.367 151.893 655.367 146.9C655.367 141.907 656.277 137.637 658.097 134.09C659.917 130.543 662.53 127.837 665.937 125.97C669.343 124.057 673.38 123.1 678.047 123.1ZM678.047 132.55C675.807 132.55 673.917 133.087 672.377 134.16C670.837 135.233 669.67 136.843 668.877 138.99C668.083 141.09 667.687 143.727 667.687 146.9C667.687 150.027 668.083 152.663 668.877 154.81C669.67 156.957 670.837 158.567 672.377 159.64C673.917 160.713 675.807 161.25 678.047 161.25C680.287 161.25 682.153 160.713 683.647 159.64C685.187 158.567 686.353 156.957 687.147 154.81C687.94 152.663 688.337 150.027 688.337 146.9C688.337 143.727 687.94 141.09 687.147 138.99C686.353 136.843 685.187 135.233 683.647 134.16C682.153 133.087 680.287 132.55 678.047 132.55ZM677.277 107.98H687.917L681.687 119.39H673.007L677.277 107.98ZM750.588 123.8V170H737.218L722.868 145.01L719.368 138.15H719.298L719.578 146.69V170H708.938V123.8H722.308L736.658 148.79L740.158 155.65H740.228L739.948 147.11V123.8H750.588Z" fill="#77B21D"/>
</svg>
