<svg width="177" height="48" viewBox="0 0 177 48" fill="none" xmlns="http://www.w3.org/2000/svg">
<path d="M24.1615 7.9601e-06C21.3078 0.00502678 18.9925 2.37893 18.9973 5.30992C19.0022 8.23589 21.3176 10.6098 24.1713 10.6098C27.0251 10.6098 29.3404 8.23589 29.3404 5.3049V5.29486C29.3355 2.36387 27.0202 -0.00501086 24.1615 7.9601e-06ZM7.0977 12.2509C6.18723 12.256 5.26208 12.3062 4.39568 12.532C3.82297 12.6826 3.26983 12.9235 2.9125 13.3049C2.46217 13.7817 2.40343 14.4241 2.6237 14.9762C2.8195 15.463 3.34815 15.8243 3.93555 16.0351C5.20334 16.4818 6.6082 16.5721 7.93963 16.8532C8.18438 16.9134 8.45849 16.9837 8.61024 17.1543C8.76688 17.3601 8.67387 17.6412 8.41444 17.7666C7.98368 17.9925 7.43055 17.9925 6.92637 17.9875C6.46625 17.9674 5.96206 17.9272 5.59494 17.6913C5.32572 17.5207 5.27677 17.2346 5.3404 16.9837H2.37406C2.36427 17.4454 2.45238 17.9323 2.78523 18.3287C3.05935 18.67 3.50969 18.9059 3.98939 19.0514C4.7579 19.2823 5.59005 19.3526 6.40751 19.3727C7.51866 19.3927 8.6494 19.3576 9.7165 19.1016C10.3528 18.941 10.9794 18.6851 11.3857 18.2685C12.1101 17.5257 11.9388 16.3463 10.9794 15.7691C10.4997 15.4831 9.92698 15.3074 9.34448 15.192C8.48786 15.0113 7.61656 14.8758 6.75505 14.7302C6.45156 14.67 6.12849 14.6148 5.87395 14.4693C5.60473 14.3237 5.58515 13.9774 5.85927 13.8218C6.21171 13.6161 6.68162 13.6211 7.10259 13.6211C7.54803 13.6311 8.03263 13.6562 8.39975 13.872C8.60534 13.9875 8.68856 14.1882 8.68856 14.3789L11.5081 14.3739C11.4983 14.0075 11.4297 13.6261 11.1703 13.3099C10.8668 12.9184 10.3333 12.6725 9.78503 12.532C8.91862 12.3011 8.00326 12.256 7.0977 12.2509ZM13.2164 12.4668V19.3777H21.4448V17.872H16.2366V16.532H20.8819V15.0615H16.2366V13.9624H21.2588L21.2539 12.4718L13.2164 12.4668ZM26.7705 12.4718C26.7705 12.4718 24.2301 12.4718 22.9574 12.4718V19.3827H25.8454V14.7302L29.8005 19.3777L33.7655 19.3827V12.4718H30.8725L30.8774 17.0891L26.7705 12.4718ZM38.9149 12.4818C38.9149 12.4818 35.8018 17.0941 34.2354 19.3927H37.2653L37.9947 18.1481H42.6792L43.3596 19.3977H46.7273L42.2631 12.4818H38.9149ZM40.4324 14.133L41.8715 16.6374L38.9003 16.6424L40.4324 14.133ZM0 21.335L0.0244748 25.0991L13.7353 25.0489C14.4352 25.2045 14.8415 25.6713 14.6996 26.7302L6.26555 41.867L9.01162 44.5019L22.0763 21.335H0ZM26.1685 21.3651L39.0128 44.4316L41.8519 41.8168L33.32 26.7202C33.1781 25.6562 33.5843 25.1844 34.2843 25.0289L48 25.079L47.9951 21.3802L26.1685 21.3651ZM24 25.1844L11.9535 46.3839L15.1548 47.9849L23.1923 34.0527C23.4713 33.8218 23.7504 33.6964 24.0294 33.6863C24.3231 33.6763 24.6266 33.7867 24.9251 34.0276L32.9431 48L36.2423 46.2334L24 25.1844Z" fill="#70B22D"/>
<path d="M82.916 14.88C85.124 14.88 87.068 15.228 88.748 15.924C90.452 16.596 91.928 17.592 93.176 18.912L90.188 22.908C89.156 21.828 88.04 21.024 86.84 20.496C85.664 19.944 84.32 19.668 82.808 19.668C81.92 19.668 81.2 19.764 80.648 19.956C80.096 20.148 79.7 20.412 79.46 20.748C79.22 21.084 79.1 21.468 79.1 21.9C79.1 22.404 79.328 22.836 79.784 23.196C80.264 23.532 81.032 23.82 82.088 24.06L86.084 24.96C88.46 25.512 90.2 26.316 91.304 27.372C92.408 28.428 92.96 29.832 92.96 31.584C92.96 33.264 92.528 34.692 91.664 35.868C90.8 37.02 89.612 37.896 88.1 38.496C86.588 39.072 84.86 39.36 82.916 39.36C81.332 39.36 79.82 39.192 78.38 38.856C76.94 38.496 75.644 37.992 74.492 37.344C73.34 36.696 72.368 35.952 71.576 35.112L74.564 30.972C75.164 31.668 75.896 32.292 76.76 32.844C77.648 33.372 78.608 33.792 79.64 34.104C80.696 34.416 81.764 34.572 82.844 34.572C83.684 34.572 84.38 34.488 84.932 34.32C85.508 34.152 85.928 33.9 86.192 33.564C86.456 33.228 86.588 32.832 86.588 32.376C86.588 31.872 86.408 31.452 86.048 31.116C85.688 30.756 85.004 30.456 83.996 30.216L79.604 29.244C78.26 28.932 77.06 28.524 76.004 28.02C74.972 27.492 74.156 26.796 73.556 25.932C72.956 25.044 72.656 23.94 72.656 22.62C72.656 21.132 73.064 19.812 73.88 18.66C74.696 17.484 75.872 16.56 77.408 15.888C78.944 15.216 80.78 14.88 82.916 14.88ZM96.8311 39V15.24H115.335V20.028H103.023V24.852H112.815V29.352H103.023V34.212H115.803V39H96.8311ZM140.962 15.24V39H134.086L126.706 26.148L124.906 22.62H124.87L125.014 27.012V39H119.542V15.24H126.418L133.798 28.092L135.598 31.62H135.634L135.49 27.228V15.24H140.962ZM167.826 39H161.454L159.798 33.636H151.662L149.97 39H143.742L152.094 15.24H159.51L167.826 39ZM152.814 29.424H158.646L155.73 19.812L152.814 29.424Z" fill="#77B21D"/>
</svg>
